{"title":"Diary of a Wimpy Kid 2010 DVDrip Englisch Klam","uid":7014859,"size":1893164618,"categoryP":"video","categoryS":"movies","magnet":"?xt=urn:btih:f9c0b072342c541735504aa0d3c72ff0f620b99f&amp;dn=Diary+of+a+Wimpy+Kid+2010+DVDrip+Englisch+Klam&amp;tr=udp%3A%2F%2Ftracker.openbittorrent.com%3A80&amp;tr=udp%3A%2F%2Fopen.demonii.com%3A1337&amp;tr=udp%3A%2F%2Ftracker.coppersurfer.tk%3A6969&amp;tr=udp%3A%2F%2Fexodus.desync.com%3A6969","seeders":0,"leechers":0,"uploader":"Klambake","files":-1,"time":1328612425,"description":"With: Zachary Gordon, Steve Zahn and Robert Capron\n\nWe volgen Greg Heffley (Zachary Gordon), een bijdehante basisschool leerling, en de problemen die &quot;middle-school&quot; voor hem oplevert. Hij wordt daarbij gesteund door zijn vader Frank (Steve Zahn) en zijn beste vriend Rowley (Robert Capron). We zien aan de hand van zijn dagboek en tekeningen alle gebeurtenissen gedurende het schooljaar. Gebaseerd op de gelijknamige boeken van Jeff Kinney.\n\nLive-action adaptation of Jeff Kinney's illustrated novel about a wise-cracking sixth grade student.\n\n------------------------ Dutch Friends ------------------------\n---------------------------------------------------------------\n- Bezoek ook eens mijn vrienden op: &lt;a href=&quot; http://www.Film-Test.nl&quot; rel=&quot;nofollow&quot; target=&quot;_NEW&quot;&gt; http://www.Film-Test.nl&lt;/a&gt; --\n----- voor mijn Nederlandse Sync. ondertitels ---- en meer ----\n------- http://www.Film-Test.nl ---- voor Films en meer -------\n---------------------------------------------------------------\n\nGeneral:\n\nComplete name                    : Diary of a Wimpy Kid\\Diary of a Wimpy Kid.avi\nFormat                           : AVI\nFormat/Info                      : Audio Video Interleave\nFile size                        : 1.76 GiB\nDuration                         : 1h 32mn\nOverall bit rate                 : 2 727 Kbps\n\nVideo:\n\nFormat                           : MPEG-4 Visual\nFormat profile                   : Simple@L3\nFormat settings, BVOP            : No\nFormat settings, QPel            : No\nFormat settings, GMC             : No warppoints\nFormat settings, Matrix          : Default (H.263)\nCodec ID                         : XVID\nCodec ID/Hint                    : XviD\nDuration                         : 1h 32mn\nBit rate                         : 2 268 Kbps\nWidth                            : 652 pixels\nHeight                           : 352 pixels\nDisplay aspect ratio             : 1.852\nFrame rate                       : 23.976 fps\nColor space                      : YUV\nChroma subsampling               : 4:2:0\nBit depth                        : 8 bits\nScan type                        : Progressive\nCompression mode                 : Lossy\nBits/(Pixel*Frame)               : 0.412\nStream size                      : 1.47 GiB (83%)\nWriting library                  : XviD 1.1.2 (UTC 2006-11-01)\n\nAudio:\n\nFormat                           : AC-3\nFormat/Info                      : Audio Coding 3\nMode extension                   : CM (complete main)\nCodec ID                         : 2000\nDuration                         : 1h 32mn\nBit rate mode                    : Constant\nBit rate                         : 448 Kbps\nChannel(s)                       : 6 channels\nChannel positions                : Front: L C R, Side: L R, LFE\nSampling rate                    : 48.0 KHz\nBit depth                        : 16 bits\nCompression mode                 : Lossy\nStream size                      : 297 MiB (16%)\nAlignment                        : Aligned on interleaves\nInterleave, duration             : 32 ms (0.77 video frame)\n\n\n","torrent":{"xt":"urn:btih:f9c0b072342c541735504aa0d3c72ff0f620b99f","amp;dn":"Diary+of+a+Wimpy+Kid+2010+DVDrip+Englisch+Klam","amp;tr":["udp%3A%2F%2Ftracker.openbittorrent.com%3A80","udp%3A%2F%2Fopen.demonii.com%3A1337","udp%3A%2F%2Ftracker.coppersurfer.tk%3A6969","udp%3A%2F%2Fexodus.desync.com%3A6969"],"infoHash":"f9c0b072342c541735504aa0d3c72ff0f620b99f","infoHashBuffer":{"type":"Buffer","data":[249,192,176,114,52,44,84,23,53,80,74,160,211,199,47,240,246,32,185,159]},"announce":[],"urlList":[]}}